<mxfile host="app.diagrams.net" modified="2020-11-20T14:38:33.057Z" agent="5.0 (Macintosh; Intel Mac OS X 10_15_7) AppleWebKit/605.1.15 (KHTML, like Gecko) Version/13.1.3 Safari/605.1.15" etag="YOtuBZJs7-jqcroOjyUL" version="13.10.0" type="github">
  <diagram id="UUgaOf1F6qNWSPvY_eEi" name="Page-1">
    <mxGraphModel dx="946" dy="662" grid="1" gridSize="10" guides="1" tooltips="1" connect="1" arrows="1" fold="1" page="1" pageScale="1" pageWidth="827" pageHeight="1169" math="0" shadow="0">
      <root>
        <mxCell id="0" />
        <mxCell id="1" parent="0" />
        <mxCell id="LLyH-jrI4SZby10niK_6-6" value="eu-central-1" style="outlineConnect=0;gradientColor=none;html=1;whiteSpace=wrap;fontSize=12;fontStyle=0;shape=mxgraph.aws4.group;grIcon=mxgraph.aws4.group_region;strokeColor=#879196;fillColor=none;verticalAlign=top;align=left;spacingLeft=30;fontColor=#879196;dashed=1;" parent="1" vertex="1">
          <mxGeometry x="40" y="80" width="750" height="800" as="geometry" />
        </mxCell>
        <mxCell id="LLyH-jrI4SZby10niK_6-10" value="eu-central-1a" style="outlineConnect=0;gradientColor=none;html=1;whiteSpace=wrap;fontSize=12;fontStyle=0;shape=mxgraph.aws4.group;grIcon=mxgraph.aws4.group_availability_zone;strokeColor=#545B64;fillColor=none;verticalAlign=top;align=left;spacingLeft=30;fontColor=#545B64;dashed=1;" parent="1" vertex="1">
          <mxGeometry x="50" y="150" width="730" height="720" as="geometry" />
        </mxCell>
        <mxCell id="FU5zcwVCU_c94r31TygK-25" value="&lt;b&gt;VPC &lt;br&gt;PROD&lt;/b&gt;" style="outlineConnect=0;html=1;whiteSpace=wrap;fontSize=12;fontStyle=0;shape=mxgraph.aws4.group;grIcon=mxgraph.aws4.group_vpc;strokeColor=#666666;fillColor=#f5f5f5;verticalAlign=top;align=left;spacingLeft=30;dashed=0;fillOpacity=60;fontColor=#333333;" parent="1" vertex="1">
          <mxGeometry x="420" y="180" width="350" height="470" as="geometry" />
        </mxCell>
        <mxCell id="LLyH-jrI4SZby10niK_6-5" value="&lt;b&gt;VPC &lt;br&gt;DEV&lt;/b&gt;" style="outlineConnect=0;html=1;whiteSpace=wrap;fontSize=12;fontStyle=0;shape=mxgraph.aws4.group;grIcon=mxgraph.aws4.group_vpc;strokeColor=#666666;fillColor=#f5f5f5;verticalAlign=top;align=left;spacingLeft=30;dashed=0;fillOpacity=60;fontColor=#333333;" parent="1" vertex="1">
          <mxGeometry x="60" y="180" width="350" height="470" as="geometry" />
        </mxCell>
        <mxCell id="LLyH-jrI4SZby10niK_6-4" value="&lt;b&gt;Subnet &lt;br&gt;DEV&lt;/b&gt;" style="outlineConnect=0;gradientColor=none;html=1;whiteSpace=wrap;fontSize=12;fontStyle=0;shape=mxgraph.aws4.group;grIcon=mxgraph.aws4.group_subnet;strokeColor=#879196;fillColor=none;verticalAlign=top;align=left;spacingLeft=30;fontColor=#879196;dashed=0;" parent="1" vertex="1">
          <mxGeometry x="70" y="280" width="296" height="220" as="geometry" />
        </mxCell>
        <mxCell id="LLyH-jrI4SZby10niK_6-27" style="edgeStyle=orthogonalEdgeStyle;rounded=0;orthogonalLoop=1;jettySize=auto;html=1;exitX=1;exitY=0.5;exitDx=0;exitDy=0;exitPerimeter=0;entryX=0;entryY=0.5;entryDx=0;entryDy=0;entryPerimeter=0;" parent="1" source="LLyH-jrI4SZby10niK_6-2" target="LLyH-jrI4SZby10niK_6-19" edge="1">
          <mxGeometry relative="1" as="geometry" />
        </mxCell>
        <mxCell id="LLyH-jrI4SZby10niK_6-2" value="Internet gateway" style="outlineConnect=0;dashed=0;verticalLabelPosition=bottom;verticalAlign=top;align=center;html=1;shape=mxgraph.aws3.internet_gateway;fillColor=#F58534;gradientColor=none;" parent="1" vertex="1">
          <mxGeometry x="150" y="200" width="28.75" height="30" as="geometry" />
        </mxCell>
        <mxCell id="LLyH-jrI4SZby10niK_6-28" style="edgeStyle=orthogonalEdgeStyle;rounded=0;orthogonalLoop=1;jettySize=auto;html=1;exitX=0.92;exitY=0.5;exitDx=0;exitDy=0;exitPerimeter=0;entryX=0.5;entryY=0;entryDx=0;entryDy=0;entryPerimeter=0;" parent="1" source="LLyH-jrI4SZby10niK_6-12" target="LLyH-jrI4SZby10niK_6-2" edge="1">
          <mxGeometry relative="1" as="geometry" />
        </mxCell>
        <mxCell id="5l9jM7L85mIRwHmAoZgA-16" style="edgeStyle=orthogonalEdgeStyle;rounded=0;orthogonalLoop=1;jettySize=auto;html=1;exitX=0.08;exitY=0.5;exitDx=0;exitDy=0;exitPerimeter=0;entryX=0;entryY=0.5;entryDx=0;entryDy=0;entryPerimeter=0;endArrow=classic;endFill=1;startArrow=none;startFill=0;" edge="1" parent="1" source="LLyH-jrI4SZby10niK_6-12" target="5l9jM7L85mIRwHmAoZgA-14">
          <mxGeometry relative="1" as="geometry">
            <Array as="points">
              <mxPoint x="20" y="50" />
              <mxPoint x="20" y="735" />
            </Array>
          </mxGeometry>
        </mxCell>
        <mxCell id="LLyH-jrI4SZby10niK_6-12" value="" style="aspect=fixed;pointerEvents=1;shadow=0;dashed=0;html=1;strokeColor=none;labelPosition=center;verticalLabelPosition=bottom;verticalAlign=top;align=center;fillColor=#00188D;shape=mxgraph.azure.laptop" parent="1" vertex="1">
          <mxGeometry x="57" y="30" width="66.66" height="40" as="geometry" />
        </mxCell>
        <mxCell id="LLyH-jrI4SZby10niK_6-16" value="&lt;b&gt;Subnet&lt;br&gt;PROD&lt;/b&gt;" style="outlineConnect=0;gradientColor=none;html=1;whiteSpace=wrap;fontSize=12;fontStyle=0;shape=mxgraph.aws4.group;grIcon=mxgraph.aws4.group_subnet;strokeColor=#879196;fillColor=none;verticalAlign=top;align=left;spacingLeft=30;fontColor=#879196;dashed=0;" parent="1" vertex="1">
          <mxGeometry x="461" y="280" width="298" height="220" as="geometry" />
        </mxCell>
        <mxCell id="LLyH-jrI4SZby10niK_6-24" style="edgeStyle=orthogonalEdgeStyle;rounded=0;orthogonalLoop=1;jettySize=auto;html=1;exitX=0.5;exitY=1;exitDx=0;exitDy=0;exitPerimeter=0;" parent="1" source="LLyH-jrI4SZby10niK_6-19" target="LLyH-jrI4SZby10niK_6-4" edge="1">
          <mxGeometry relative="1" as="geometry" />
        </mxCell>
        <mxCell id="LLyH-jrI4SZby10niK_6-19" value="Route table&lt;br&gt;public" style="outlineConnect=0;dashed=0;verticalLabelPosition=middle;verticalAlign=middle;align=left;html=1;shape=mxgraph.aws3.route_table;fillColor=#F58536;gradientColor=none;labelPosition=right;" parent="1" vertex="1">
          <mxGeometry x="223.02" y="204.5" width="23.71" height="21" as="geometry" />
        </mxCell>
        <mxCell id="Gg3K2ls2yGk3OWGE8Ab6-3" value="Route 53" style="outlineConnect=0;dashed=0;verticalLabelPosition=middle;verticalAlign=middle;align=left;html=1;shape=mxgraph.aws3.route_53;fillColor=#F58536;gradientColor=none;labelPosition=right;" parent="1" vertex="1">
          <mxGeometry x="317.02" y="200" width="22.98" height="30" as="geometry" />
        </mxCell>
        <mxCell id="WJ81USQerfGTGFu2v-6j-1" value="IAM role" style="outlineConnect=0;dashed=0;verticalLabelPosition=bottom;verticalAlign=top;align=center;html=1;shape=mxgraph.aws3.role;fillColor=#759C3E;gradientColor=none;" parent="1" vertex="1">
          <mxGeometry x="414.93" y="93" width="35.07" height="29.5" as="geometry" />
        </mxCell>
        <mxCell id="WJ81USQerfGTGFu2v-6j-3" value="db secrets" style="outlineConnect=0;fontColor=#232F3E;gradientColor=#F54749;gradientDirection=north;fillColor=#C7131F;strokeColor=#ffffff;dashed=0;verticalLabelPosition=bottom;verticalAlign=top;align=center;html=1;fontSize=12;fontStyle=0;aspect=fixed;shape=mxgraph.aws4.resourceIcon;resIcon=mxgraph.aws4.secrets_manager;" parent="1" vertex="1">
          <mxGeometry x="347" y="92.5" width="30" height="30" as="geometry" />
        </mxCell>
        <mxCell id="mmzX4yjb0Bl6ZRDBmCqj-1" value="Security Group" style="fontStyle=0;verticalAlign=top;align=center;spacingTop=-2;fillColor=#fff2cc;rounded=0;whiteSpace=wrap;html=1;strokeColor=#d6b656;strokeWidth=2;dashed=1;container=1;collapsible=0;expand=0;recursiveResize=0;" parent="1" vertex="1">
          <mxGeometry x="100" y="373.5" width="80" height="120" as="geometry" />
        </mxCell>
        <mxCell id="mmzX4yjb0Bl6ZRDBmCqj-2" value="" style="outlineConnect=0;dashed=0;verticalLabelPosition=bottom;verticalAlign=top;align=center;html=1;shape=mxgraph.aws3.ec2;fillColor=#F58534;gradientColor=none;" parent="mmzX4yjb0Bl6ZRDBmCqj-1" vertex="1">
          <mxGeometry x="23.999999999999996" y="74" width="32.9" height="40" as="geometry" />
        </mxCell>
        <mxCell id="mmzX4yjb0Bl6ZRDBmCqj-3" value="" style="shape=image;html=1;verticalAlign=top;verticalLabelPosition=bottom;labelBackgroundColor=#ffffff;imageAspect=0;aspect=fixed;image=https://cdn2.iconfinder.com/data/icons/nodejs-1/128/nodejs-128.png" parent="mmzX4yjb0Bl6ZRDBmCqj-1" vertex="1">
          <mxGeometry x="16.45" y="30" width="48" height="48" as="geometry" />
        </mxCell>
        <mxCell id="mmzX4yjb0Bl6ZRDBmCqj-11" value="&lt;b&gt;Subnet&lt;br&gt;DEV&lt;/b&gt;" style="outlineConnect=0;gradientColor=none;html=1;whiteSpace=wrap;fontSize=12;fontStyle=0;shape=mxgraph.aws4.group;grIcon=mxgraph.aws4.group_subnet;strokeColor=#879196;fillColor=none;verticalAlign=top;align=left;spacingLeft=30;fontColor=#879196;dashed=0;" parent="1" vertex="1">
          <mxGeometry x="70" y="510" width="140" height="123.5" as="geometry" />
        </mxCell>
        <mxCell id="LLyH-jrI4SZby10niK_6-3" value="Security Group" style="fontStyle=0;verticalAlign=top;align=center;spacingTop=-2;fillColor=#fff2cc;rounded=0;whiteSpace=wrap;html=1;strokeColor=#d6b656;strokeWidth=2;dashed=1;container=1;collapsible=0;expand=0;recursiveResize=0;" parent="1" vertex="1">
          <mxGeometry x="82.75" y="550" width="114.5" height="77" as="geometry" />
        </mxCell>
        <mxCell id="LLyH-jrI4SZby10niK_6-1" value="" style="outlineConnect=0;dashed=0;verticalLabelPosition=bottom;verticalAlign=top;align=center;html=1;shape=mxgraph.aws3.rds_db_instance;fillColor=#2E73B8;gradientColor=none;" parent="LLyH-jrI4SZby10niK_6-3" vertex="1">
          <mxGeometry x="32.9" y="22" width="41.25" height="48" as="geometry" />
        </mxCell>
        <mxCell id="mmzX4yjb0Bl6ZRDBmCqj-20" style="edgeStyle=orthogonalEdgeStyle;rounded=0;orthogonalLoop=1;jettySize=auto;html=1;exitX=0.5;exitY=1;exitDx=0;exitDy=0;exitPerimeter=0;entryX=0.5;entryY=0;entryDx=0;entryDy=0;" parent="1" source="mmzX4yjb0Bl6ZRDBmCqj-15" target="mmzX4yjb0Bl6ZRDBmCqj-4" edge="1">
          <mxGeometry relative="1" as="geometry">
            <Array as="points">
              <mxPoint x="176" y="350" />
              <mxPoint x="304" y="350" />
            </Array>
          </mxGeometry>
        </mxCell>
        <mxCell id="mmzX4yjb0Bl6ZRDBmCqj-26" style="edgeStyle=orthogonalEdgeStyle;rounded=0;orthogonalLoop=1;jettySize=auto;html=1;exitX=0.5;exitY=1;exitDx=0;exitDy=0;exitPerimeter=0;entryX=0.5;entryY=0;entryDx=0;entryDy=0;startArrow=none;startFill=0;" parent="1" source="mmzX4yjb0Bl6ZRDBmCqj-15" target="mmzX4yjb0Bl6ZRDBmCqj-1" edge="1">
          <mxGeometry relative="1" as="geometry">
            <Array as="points">
              <mxPoint x="176" y="350" />
              <mxPoint x="140" y="350" />
            </Array>
          </mxGeometry>
        </mxCell>
        <mxCell id="mmzX4yjb0Bl6ZRDBmCqj-15" value="&lt;b&gt;NLB&lt;/b&gt;" style="outlineConnect=0;dashed=0;verticalLabelPosition=bottom;verticalAlign=top;align=right;html=1;shape=mxgraph.aws3.classic_load_balancer;fillColor=#F58534;gradientColor=none;labelPosition=left;" parent="1" vertex="1">
          <mxGeometry x="161.5" y="290.5" width="28.75" height="30" as="geometry" />
        </mxCell>
        <mxCell id="mmzX4yjb0Bl6ZRDBmCqj-23" value="" style="edgeStyle=orthogonalEdgeStyle;rounded=0;orthogonalLoop=1;jettySize=auto;html=1;startArrow=classic;startFill=1;" parent="1" source="mmzX4yjb0Bl6ZRDBmCqj-22" target="mmzX4yjb0Bl6ZRDBmCqj-15" edge="1">
          <mxGeometry relative="1" as="geometry" />
        </mxCell>
        <mxCell id="mmzX4yjb0Bl6ZRDBmCqj-22" value="&lt;b&gt;ElasticIP&lt;/b&gt;" style="outlineConnect=0;dashed=0;verticalLabelPosition=bottom;verticalAlign=top;align=center;html=1;shape=mxgraph.aws3.elastic_ip;fillColor=#F58534;gradientColor=none;" parent="1" vertex="1">
          <mxGeometry x="236" y="300.5" width="40" height="10" as="geometry" />
        </mxCell>
        <mxCell id="FU5zcwVCU_c94r31TygK-1" value="Security Group" style="fontStyle=0;verticalAlign=top;align=center;spacingTop=-2;fillColor=#fff2cc;rounded=0;whiteSpace=wrap;html=1;strokeColor=#d6b656;strokeWidth=2;dashed=1;container=1;collapsible=0;expand=0;recursiveResize=0;" parent="1" vertex="1">
          <mxGeometry x="488" y="371.5" width="80" height="120" as="geometry" />
        </mxCell>
        <mxCell id="FU5zcwVCU_c94r31TygK-2" value="" style="outlineConnect=0;dashed=0;verticalLabelPosition=bottom;verticalAlign=top;align=center;html=1;shape=mxgraph.aws3.ec2;fillColor=#F58534;gradientColor=none;" parent="FU5zcwVCU_c94r31TygK-1" vertex="1">
          <mxGeometry x="23.999999999999996" y="74" width="32.9" height="40" as="geometry" />
        </mxCell>
        <mxCell id="FU5zcwVCU_c94r31TygK-3" value="" style="shape=image;html=1;verticalAlign=top;verticalLabelPosition=bottom;labelBackgroundColor=#ffffff;imageAspect=0;aspect=fixed;image=https://cdn2.iconfinder.com/data/icons/nodejs-1/128/nodejs-128.png" parent="FU5zcwVCU_c94r31TygK-1" vertex="1">
          <mxGeometry x="16.45" y="30" width="48" height="48" as="geometry" />
        </mxCell>
        <mxCell id="FU5zcwVCU_c94r31TygK-4" value="Security Group" style="fontStyle=0;verticalAlign=top;align=center;spacingTop=-2;fillColor=#fff2cc;rounded=0;whiteSpace=wrap;html=1;strokeColor=#d6b656;strokeWidth=2;dashed=1;container=1;collapsible=0;expand=0;recursiveResize=0;" parent="1" vertex="1">
          <mxGeometry x="578" y="371.5" width="80" height="120" as="geometry" />
        </mxCell>
        <mxCell id="FU5zcwVCU_c94r31TygK-5" value="" style="outlineConnect=0;dashed=0;verticalLabelPosition=bottom;verticalAlign=top;align=center;html=1;shape=mxgraph.aws3.ec2;fillColor=#F58534;gradientColor=none;" parent="FU5zcwVCU_c94r31TygK-4" vertex="1">
          <mxGeometry x="23.999999999999996" y="74" width="32.9" height="40" as="geometry" />
        </mxCell>
        <mxCell id="FU5zcwVCU_c94r31TygK-6" value="" style="shape=image;html=1;verticalAlign=top;verticalLabelPosition=bottom;labelBackgroundColor=#ffffff;imageAspect=0;aspect=fixed;image=https://cdn2.iconfinder.com/data/icons/nodejs-1/128/nodejs-128.png" parent="FU5zcwVCU_c94r31TygK-4" vertex="1">
          <mxGeometry x="16.45" y="30" width="48" height="48" as="geometry" />
        </mxCell>
        <mxCell id="FU5zcwVCU_c94r31TygK-10" style="edgeStyle=orthogonalEdgeStyle;rounded=0;orthogonalLoop=1;jettySize=auto;html=1;exitX=0.5;exitY=1;exitDx=0;exitDy=0;exitPerimeter=0;entryX=0.5;entryY=0;entryDx=0;entryDy=0;" parent="1" source="FU5zcwVCU_c94r31TygK-13" target="FU5zcwVCU_c94r31TygK-7" edge="1">
          <mxGeometry relative="1" as="geometry">
            <Array as="points">
              <mxPoint x="576" y="328" />
              <mxPoint x="618" y="328" />
              <mxPoint x="618" y="346" />
              <mxPoint x="708" y="346" />
            </Array>
          </mxGeometry>
        </mxCell>
        <mxCell id="FU5zcwVCU_c94r31TygK-11" style="edgeStyle=orthogonalEdgeStyle;rounded=0;orthogonalLoop=1;jettySize=auto;html=1;exitX=0.5;exitY=1;exitDx=0;exitDy=0;exitPerimeter=0;entryX=0.5;entryY=0;entryDx=0;entryDy=0;" parent="1" source="FU5zcwVCU_c94r31TygK-13" target="FU5zcwVCU_c94r31TygK-1" edge="1">
          <mxGeometry relative="1" as="geometry">
            <Array as="points">
              <mxPoint x="576" y="328" />
              <mxPoint x="618" y="328" />
              <mxPoint x="618" y="346" />
              <mxPoint x="528" y="346" />
            </Array>
          </mxGeometry>
        </mxCell>
        <mxCell id="FU5zcwVCU_c94r31TygK-12" style="edgeStyle=orthogonalEdgeStyle;rounded=0;orthogonalLoop=1;jettySize=auto;html=1;exitX=0.5;exitY=1;exitDx=0;exitDy=0;exitPerimeter=0;entryX=0.5;entryY=0;entryDx=0;entryDy=0;startArrow=none;startFill=0;" parent="1" source="FU5zcwVCU_c94r31TygK-13" target="FU5zcwVCU_c94r31TygK-4" edge="1">
          <mxGeometry relative="1" as="geometry">
            <Array as="points">
              <mxPoint x="576" y="328" />
              <mxPoint x="618" y="328" />
            </Array>
          </mxGeometry>
        </mxCell>
        <mxCell id="FU5zcwVCU_c94r31TygK-13" value="&lt;b&gt;NLB&lt;/b&gt;" style="outlineConnect=0;dashed=0;verticalLabelPosition=bottom;verticalAlign=top;align=right;html=1;shape=mxgraph.aws3.classic_load_balancer;fillColor=#F58534;gradientColor=none;labelPosition=left;" parent="1" vertex="1">
          <mxGeometry x="561.5" y="288.5" width="28.75" height="30" as="geometry" />
        </mxCell>
        <mxCell id="FU5zcwVCU_c94r31TygK-14" value="" style="edgeStyle=orthogonalEdgeStyle;rounded=0;orthogonalLoop=1;jettySize=auto;html=1;startArrow=classic;startFill=1;" parent="1" source="FU5zcwVCU_c94r31TygK-15" target="FU5zcwVCU_c94r31TygK-13" edge="1">
          <mxGeometry relative="1" as="geometry" />
        </mxCell>
        <mxCell id="FU5zcwVCU_c94r31TygK-15" value="&lt;b&gt;ElasticIP&lt;/b&gt;" style="outlineConnect=0;dashed=0;verticalLabelPosition=bottom;verticalAlign=top;align=center;html=1;shape=mxgraph.aws3.elastic_ip;fillColor=#F58534;gradientColor=none;" parent="1" vertex="1">
          <mxGeometry x="636" y="298.5" width="40" height="10" as="geometry" />
        </mxCell>
        <mxCell id="FU5zcwVCU_c94r31TygK-19" style="edgeStyle=orthogonalEdgeStyle;curved=1;rounded=0;orthogonalLoop=1;jettySize=auto;html=1;exitX=1;exitY=0.5;exitDx=0;exitDy=0;exitPerimeter=0;entryX=0.5;entryY=1;entryDx=0;entryDy=0;entryPerimeter=0;labelBackgroundColor=#FFE6CC;fontColor=#FF8000;align=center;strokeColor=#FF8000;" parent="1" source="FU5zcwVCU_c94r31TygK-16" target="FU5zcwVCU_c94r31TygK-5" edge="1">
          <mxGeometry relative="1" as="geometry">
            <Array as="points">
              <mxPoint x="800" y="108" />
              <mxPoint x="800" y="506" />
              <mxPoint x="619" y="506" />
            </Array>
          </mxGeometry>
        </mxCell>
        <mxCell id="FU5zcwVCU_c94r31TygK-20" style="edgeStyle=orthogonalEdgeStyle;curved=1;rounded=0;orthogonalLoop=1;jettySize=auto;html=1;exitX=1;exitY=0.5;exitDx=0;exitDy=0;exitPerimeter=0;entryX=0.5;entryY=1;entryDx=0;entryDy=0;entryPerimeter=0;labelBackgroundColor=#FFE6CC;fontColor=#FF8000;align=center;strokeColor=#FF8000;" parent="1" source="FU5zcwVCU_c94r31TygK-16" target="FU5zcwVCU_c94r31TygK-2" edge="1">
          <mxGeometry relative="1" as="geometry">
            <Array as="points">
              <mxPoint x="790" y="108" />
              <mxPoint x="790" y="506" />
              <mxPoint x="529" y="506" />
            </Array>
          </mxGeometry>
        </mxCell>
        <mxCell id="FU5zcwVCU_c94r31TygK-16" value="AMI" style="outlineConnect=0;dashed=0;verticalLabelPosition=bottom;verticalAlign=top;align=center;html=1;shape=mxgraph.aws3.ami;fillColor=#F58534;gradientColor=none;" parent="1" vertex="1">
          <mxGeometry x="519.5699999999999" y="91" width="31.43" height="33" as="geometry" />
        </mxCell>
        <mxCell id="FU5zcwVCU_c94r31TygK-17" value="&lt;b&gt;&lt;font style=&quot;font-size: 14px&quot;&gt;Build &lt;br&gt;the AMI&lt;/font&gt;&lt;/b&gt;" style="edgeStyle=entityRelationEdgeStyle;rounded=0;orthogonalLoop=1;jettySize=auto;html=1;exitX=1;exitY=0.5;exitDx=0;exitDy=0;exitPerimeter=0;entryX=0;entryY=0.5;entryDx=0;entryDy=0;entryPerimeter=0;elbow=vertical;labelPosition=left;verticalLabelPosition=middle;align=center;verticalAlign=middle;labelBackgroundColor=#FFE6CC;horizontal=1;spacingTop=9;spacingRight=3;fontColor=#FF8000;labelBorderColor=#FF8000;strokeColor=#FF8000;spacingLeft=17;" parent="1" source="mmzX4yjb0Bl6ZRDBmCqj-5" target="FU5zcwVCU_c94r31TygK-16" edge="1">
          <mxGeometry x="-0.2142" y="6" relative="1" as="geometry">
            <mxPoint as="offset" />
          </mxGeometry>
        </mxCell>
        <mxCell id="FU5zcwVCU_c94r31TygK-31" style="edgeStyle=orthogonalEdgeStyle;rounded=0;orthogonalLoop=1;jettySize=auto;html=1;exitX=0.5;exitY=1;exitDx=0;exitDy=0;exitPerimeter=0;labelBackgroundColor=none;align=center;" parent="1" source="FU5zcwVCU_c94r31TygK-26" target="LLyH-jrI4SZby10niK_6-16" edge="1">
          <mxGeometry relative="1" as="geometry" />
        </mxCell>
        <mxCell id="FU5zcwVCU_c94r31TygK-26" value="Route table&lt;br&gt;public" style="outlineConnect=0;dashed=0;verticalLabelPosition=middle;verticalAlign=middle;align=left;html=1;shape=mxgraph.aws3.route_table;fillColor=#F58536;gradientColor=none;labelPosition=right;" parent="1" vertex="1">
          <mxGeometry x="560" y="204.5" width="23.71" height="21" as="geometry" />
        </mxCell>
        <mxCell id="FU5zcwVCU_c94r31TygK-27" value="Route 53" style="outlineConnect=0;dashed=0;verticalLabelPosition=middle;verticalAlign=middle;align=left;html=1;shape=mxgraph.aws3.route_53;fillColor=#F58536;gradientColor=none;labelPosition=right;" parent="1" vertex="1">
          <mxGeometry x="660" y="200" width="22.98" height="30" as="geometry" />
        </mxCell>
        <mxCell id="FU5zcwVCU_c94r31TygK-32" style="edgeStyle=orthogonalEdgeStyle;rounded=0;orthogonalLoop=1;jettySize=auto;html=1;exitX=1;exitY=0.5;exitDx=0;exitDy=0;exitPerimeter=0;entryX=0;entryY=0.5;entryDx=0;entryDy=0;entryPerimeter=0;labelBackgroundColor=none;strokeColor=#000000;fontColor=#000000;align=center;" parent="1" source="FU5zcwVCU_c94r31TygK-28" target="FU5zcwVCU_c94r31TygK-26" edge="1">
          <mxGeometry relative="1" as="geometry" />
        </mxCell>
        <mxCell id="FU5zcwVCU_c94r31TygK-28" value="Internet gateway" style="outlineConnect=0;dashed=0;verticalLabelPosition=bottom;verticalAlign=top;align=center;html=1;shape=mxgraph.aws3.internet_gateway;fillColor=#F58534;gradientColor=none;" parent="1" vertex="1">
          <mxGeometry x="495.75" y="200" width="28.75" height="30" as="geometry" />
        </mxCell>
        <mxCell id="FU5zcwVCU_c94r31TygK-29" style="edgeStyle=orthogonalEdgeStyle;rounded=0;orthogonalLoop=1;jettySize=auto;html=1;exitX=0.92;exitY=0.5;exitDx=0;exitDy=0;exitPerimeter=0;entryX=0.5;entryY=0;entryDx=0;entryDy=0;entryPerimeter=0;" parent="1" source="LLyH-jrI4SZby10niK_6-12" target="FU5zcwVCU_c94r31TygK-28" edge="1">
          <mxGeometry relative="1" as="geometry">
            <mxPoint x="121.32719999999995" y="60" as="sourcePoint" />
            <mxPoint x="154.375" y="210" as="targetPoint" />
            <Array as="points">
              <mxPoint x="250" y="50" />
              <mxPoint x="250" y="160" />
              <mxPoint x="510" y="160" />
            </Array>
          </mxGeometry>
        </mxCell>
        <mxCell id="Gg3K2ls2yGk3OWGE8Ab6-6" style="edgeStyle=orthogonalEdgeStyle;rounded=0;orthogonalLoop=1;jettySize=auto;html=1;entryX=0.5;entryY=1;entryDx=0;entryDy=0;entryPerimeter=0;endArrow=none;endFill=0;curved=1;dashed=1;" parent="1" source="LLyH-jrI4SZby10niK_6-1" target="Gg3K2ls2yGk3OWGE8Ab6-3" edge="1">
          <mxGeometry relative="1" as="geometry">
            <mxPoint x="181.45000000000005" y="450" as="sourcePoint" />
            <mxPoint x="502.49" y="235" as="targetPoint" />
          </mxGeometry>
        </mxCell>
        <mxCell id="mmzX4yjb0Bl6ZRDBmCqj-4" value="Security Group" style="fontStyle=0;verticalAlign=top;align=center;spacingTop=-2;fillColor=#fff2cc;rounded=0;whiteSpace=wrap;html=1;strokeColor=#d6b656;strokeWidth=2;dashed=1;container=1;collapsible=0;expand=0;recursiveResize=0;" parent="1" vertex="1">
          <mxGeometry x="264" y="373.5" width="80" height="120" as="geometry" />
        </mxCell>
        <mxCell id="mmzX4yjb0Bl6ZRDBmCqj-5" value="" style="outlineConnect=0;dashed=0;verticalLabelPosition=bottom;verticalAlign=top;align=center;html=1;shape=mxgraph.aws3.ec2;fillColor=#F58534;gradientColor=none;" parent="mmzX4yjb0Bl6ZRDBmCqj-4" vertex="1">
          <mxGeometry x="23.999999999999996" y="74" width="32.9" height="40" as="geometry" />
        </mxCell>
        <mxCell id="mmzX4yjb0Bl6ZRDBmCqj-6" value="" style="shape=image;html=1;verticalAlign=top;verticalLabelPosition=bottom;labelBackgroundColor=#ffffff;imageAspect=0;aspect=fixed;image=https://cdn2.iconfinder.com/data/icons/nodejs-1/128/nodejs-128.png" parent="mmzX4yjb0Bl6ZRDBmCqj-4" vertex="1">
          <mxGeometry x="16.45" y="30" width="48" height="48" as="geometry" />
        </mxCell>
        <mxCell id="FU5zcwVCU_c94r31TygK-35" value="&lt;b&gt;Subnet&lt;br&gt;DEV&lt;/b&gt;" style="outlineConnect=0;gradientColor=none;html=1;whiteSpace=wrap;fontSize=12;fontStyle=0;shape=mxgraph.aws4.group;grIcon=mxgraph.aws4.group_subnet;strokeColor=#879196;fillColor=none;verticalAlign=top;align=left;spacingLeft=30;fontColor=#879196;dashed=0;" parent="1" vertex="1">
          <mxGeometry x="230" y="510" width="136" height="123.5" as="geometry" />
        </mxCell>
        <mxCell id="FU5zcwVCU_c94r31TygK-36" value="&lt;b&gt;Subnet&lt;br&gt;PROD&lt;br&gt;&lt;/b&gt;" style="outlineConnect=0;gradientColor=none;html=1;whiteSpace=wrap;fontSize=12;fontStyle=0;shape=mxgraph.aws4.group;grIcon=mxgraph.aws4.group_subnet;strokeColor=#879196;fillColor=none;verticalAlign=top;align=left;spacingLeft=30;fontColor=#879196;dashed=0;" parent="1" vertex="1">
          <mxGeometry x="463" y="510" width="140" height="123.5" as="geometry" />
        </mxCell>
        <mxCell id="FU5zcwVCU_c94r31TygK-37" value="Security Group" style="fontStyle=0;verticalAlign=top;align=center;spacingTop=-2;fillColor=#fff2cc;rounded=0;whiteSpace=wrap;html=1;strokeColor=#d6b656;strokeWidth=2;dashed=1;container=1;collapsible=0;expand=0;recursiveResize=0;" parent="1" vertex="1">
          <mxGeometry x="475.75" y="550" width="114.5" height="77" as="geometry" />
        </mxCell>
        <mxCell id="FU5zcwVCU_c94r31TygK-38" value="" style="outlineConnect=0;dashed=0;verticalLabelPosition=bottom;verticalAlign=top;align=center;html=1;shape=mxgraph.aws3.rds_db_instance;fillColor=#2E73B8;gradientColor=none;" parent="FU5zcwVCU_c94r31TygK-37" vertex="1">
          <mxGeometry x="32.9" y="22" width="41.25" height="48" as="geometry" />
        </mxCell>
        <mxCell id="FU5zcwVCU_c94r31TygK-39" value="&lt;b&gt;Subnet&lt;br&gt;PROD&lt;br&gt;&lt;/b&gt;" style="outlineConnect=0;gradientColor=none;html=1;whiteSpace=wrap;fontSize=12;fontStyle=0;shape=mxgraph.aws4.group;grIcon=mxgraph.aws4.group_subnet;strokeColor=#879196;fillColor=none;verticalAlign=top;align=left;spacingLeft=30;fontColor=#879196;dashed=0;" parent="1" vertex="1">
          <mxGeometry x="623" y="510" width="136" height="123.5" as="geometry" />
        </mxCell>
        <mxCell id="FU5zcwVCU_c94r31TygK-33" style="edgeStyle=orthogonalEdgeStyle;rounded=0;orthogonalLoop=1;jettySize=auto;html=1;entryX=0.5;entryY=1;entryDx=0;entryDy=0;entryPerimeter=0;endArrow=none;endFill=0;curved=1;dashed=1;exitX=1;exitY=0.5;exitDx=0;exitDy=0;exitPerimeter=0;" parent="1" source="FU5zcwVCU_c94r31TygK-38" target="FU5zcwVCU_c94r31TygK-27" edge="1">
          <mxGeometry relative="1" as="geometry">
            <mxPoint x="638.25" y="596" as="sourcePoint" />
            <mxPoint x="338.51" y="240" as="targetPoint" />
          </mxGeometry>
        </mxCell>
        <mxCell id="FU5zcwVCU_c94r31TygK-7" value="Security Group" style="fontStyle=0;verticalAlign=top;align=center;spacingTop=-2;fillColor=#fff2cc;rounded=0;whiteSpace=wrap;html=1;strokeColor=#d6b656;strokeWidth=2;dashed=1;container=1;collapsible=0;expand=0;recursiveResize=0;" parent="1" vertex="1">
          <mxGeometry x="668" y="371.5" width="80" height="120" as="geometry" />
        </mxCell>
        <mxCell id="FU5zcwVCU_c94r31TygK-8" value="" style="outlineConnect=0;dashed=0;verticalLabelPosition=bottom;verticalAlign=top;align=center;html=1;shape=mxgraph.aws3.ec2;fillColor=#F58534;gradientColor=none;" parent="FU5zcwVCU_c94r31TygK-7" vertex="1">
          <mxGeometry x="23.999999999999996" y="74" width="32.9" height="40" as="geometry" />
        </mxCell>
        <mxCell id="FU5zcwVCU_c94r31TygK-9" value="" style="shape=image;html=1;verticalAlign=top;verticalLabelPosition=bottom;labelBackgroundColor=#ffffff;imageAspect=0;aspect=fixed;image=https://cdn2.iconfinder.com/data/icons/nodejs-1/128/nodejs-128.png" parent="FU5zcwVCU_c94r31TygK-7" vertex="1">
          <mxGeometry x="16.45" y="30" width="48" height="48" as="geometry" />
        </mxCell>
        <mxCell id="FU5zcwVCU_c94r31TygK-18" style="edgeStyle=orthogonalEdgeStyle;rounded=0;orthogonalLoop=1;jettySize=auto;html=1;exitX=1;exitY=0.5;exitDx=0;exitDy=0;exitPerimeter=0;entryX=0.5;entryY=1;entryDx=0;entryDy=0;entryPerimeter=0;labelBackgroundColor=#FFE6CC;fontColor=#FF8000;align=center;curved=1;strokeColor=#FF8000;" parent="1" source="FU5zcwVCU_c94r31TygK-16" target="FU5zcwVCU_c94r31TygK-8" edge="1">
          <mxGeometry relative="1" as="geometry">
            <Array as="points">
              <mxPoint x="810" y="108" />
              <mxPoint x="810" y="506" />
              <mxPoint x="709" y="506" />
            </Array>
          </mxGeometry>
        </mxCell>
        <mxCell id="5l9jM7L85mIRwHmAoZgA-1" value="&lt;b&gt;VPC &lt;br&gt;MGMT&lt;br&gt;&lt;/b&gt;" style="outlineConnect=0;html=1;whiteSpace=wrap;fontSize=12;fontStyle=0;shape=mxgraph.aws4.group;grIcon=mxgraph.aws4.group_vpc;strokeColor=#666666;fillColor=#f5f5f5;verticalAlign=top;align=left;spacingLeft=30;dashed=0;fillOpacity=60;fontColor=#333333;" vertex="1" parent="1">
          <mxGeometry x="59.88" y="660" width="710.12" height="200" as="geometry" />
        </mxCell>
        <mxCell id="5l9jM7L85mIRwHmAoZgA-23" style="edgeStyle=orthogonalEdgeStyle;rounded=0;orthogonalLoop=1;jettySize=auto;html=1;exitX=0.5;exitY=1;exitDx=0;exitDy=0;exitPerimeter=0;entryX=0.5;entryY=0;entryDx=0;entryDy=0;entryPerimeter=0;startArrow=none;startFill=0;endArrow=none;endFill=0;" edge="1" parent="1" source="5l9jM7L85mIRwHmAoZgA-2" target="5l9jM7L85mIRwHmAoZgA-21">
          <mxGeometry relative="1" as="geometry" />
        </mxCell>
        <mxCell id="5l9jM7L85mIRwHmAoZgA-2" value="" style="outlineConnect=0;dashed=0;verticalLabelPosition=bottom;verticalAlign=top;align=center;html=1;shape=mxgraph.aws3.vpc_peering;fillColor=#F58534;gradientColor=none;" vertex="1" parent="1">
          <mxGeometry x="374" y="640" width="28.75" height="30" as="geometry" />
        </mxCell>
        <mxCell id="5l9jM7L85mIRwHmAoZgA-27" style="edgeStyle=orthogonalEdgeStyle;rounded=0;orthogonalLoop=1;jettySize=auto;html=1;exitX=0.5;exitY=1;exitDx=0;exitDy=0;exitPerimeter=0;entryX=0.5;entryY=0;entryDx=0;entryDy=0;entryPerimeter=0;startArrow=none;startFill=0;endArrow=none;endFill=0;" edge="1" parent="1" source="5l9jM7L85mIRwHmAoZgA-3" target="5l9jM7L85mIRwHmAoZgA-22">
          <mxGeometry relative="1" as="geometry" />
        </mxCell>
        <mxCell id="5l9jM7L85mIRwHmAoZgA-3" value="" style="outlineConnect=0;dashed=0;verticalLabelPosition=bottom;verticalAlign=top;align=center;html=1;shape=mxgraph.aws3.vpc_peering;fillColor=#F58534;gradientColor=none;" vertex="1" parent="1">
          <mxGeometry x="427.25" y="640" width="28.75" height="30" as="geometry" />
        </mxCell>
        <mxCell id="5l9jM7L85mIRwHmAoZgA-9" style="edgeStyle=orthogonalEdgeStyle;rounded=0;orthogonalLoop=1;jettySize=auto;html=1;exitX=0.5;exitY=0;exitDx=0;exitDy=0;exitPerimeter=0;endArrow=none;endFill=0;" edge="1" parent="1" source="5l9jM7L85mIRwHmAoZgA-4" target="LLyH-jrI4SZby10niK_6-4">
          <mxGeometry relative="1" as="geometry" />
        </mxCell>
        <mxCell id="5l9jM7L85mIRwHmAoZgA-10" style="edgeStyle=orthogonalEdgeStyle;rounded=0;orthogonalLoop=1;jettySize=auto;html=1;exitX=0.5;exitY=1;exitDx=0;exitDy=0;exitPerimeter=0;entryX=0.5;entryY=0;entryDx=0;entryDy=0;entryPerimeter=0;endArrow=none;endFill=0;" edge="1" parent="1" source="5l9jM7L85mIRwHmAoZgA-4" target="5l9jM7L85mIRwHmAoZgA-2">
          <mxGeometry relative="1" as="geometry" />
        </mxCell>
        <mxCell id="5l9jM7L85mIRwHmAoZgA-4" value="" style="outlineConnect=0;dashed=0;verticalLabelPosition=middle;verticalAlign=middle;align=left;html=1;shape=mxgraph.aws3.route_table;fillColor=#F58536;gradientColor=none;labelPosition=right;" vertex="1" parent="1">
          <mxGeometry x="377" y="460" width="23.71" height="21" as="geometry" />
        </mxCell>
        <mxCell id="5l9jM7L85mIRwHmAoZgA-11" style="edgeStyle=orthogonalEdgeStyle;rounded=0;orthogonalLoop=1;jettySize=auto;html=1;exitX=0.5;exitY=1;exitDx=0;exitDy=0;exitPerimeter=0;entryX=0.5;entryY=0;entryDx=0;entryDy=0;entryPerimeter=0;endArrow=none;endFill=0;" edge="1" parent="1" source="5l9jM7L85mIRwHmAoZgA-5" target="5l9jM7L85mIRwHmAoZgA-3">
          <mxGeometry relative="1" as="geometry" />
        </mxCell>
        <mxCell id="5l9jM7L85mIRwHmAoZgA-12" style="edgeStyle=orthogonalEdgeStyle;rounded=0;orthogonalLoop=1;jettySize=auto;html=1;exitX=0.5;exitY=0;exitDx=0;exitDy=0;exitPerimeter=0;endArrow=none;endFill=0;" edge="1" parent="1" source="5l9jM7L85mIRwHmAoZgA-5" target="LLyH-jrI4SZby10niK_6-16">
          <mxGeometry relative="1" as="geometry" />
        </mxCell>
        <mxCell id="5l9jM7L85mIRwHmAoZgA-5" value="" style="outlineConnect=0;dashed=0;verticalLabelPosition=middle;verticalAlign=middle;align=left;html=1;shape=mxgraph.aws3.route_table;fillColor=#F58536;gradientColor=none;labelPosition=right;" vertex="1" parent="1">
          <mxGeometry x="429.25" y="460" width="23.71" height="21" as="geometry" />
        </mxCell>
        <mxCell id="5l9jM7L85mIRwHmAoZgA-13" value="&lt;b&gt;Subnet&lt;br&gt;MGMT&lt;/b&gt;" style="outlineConnect=0;gradientColor=none;html=1;whiteSpace=wrap;fontSize=12;fontStyle=0;shape=mxgraph.aws4.group;grIcon=mxgraph.aws4.group_subnet;strokeColor=#879196;fillColor=none;verticalAlign=top;align=left;spacingLeft=30;fontColor=#879196;dashed=0;" vertex="1" parent="1">
          <mxGeometry x="166.88" y="740" width="583.12" height="110" as="geometry" />
        </mxCell>
        <mxCell id="5l9jM7L85mIRwHmAoZgA-19" style="edgeStyle=orthogonalEdgeStyle;rounded=0;orthogonalLoop=1;jettySize=auto;html=1;exitX=0.5;exitY=1;exitDx=0;exitDy=0;exitPerimeter=0;entryX=0.5;entryY=0;entryDx=0;entryDy=0;entryPerimeter=0;startArrow=none;startFill=0;endArrow=classic;endFill=1;" edge="1" parent="1" source="5l9jM7L85mIRwHmAoZgA-14" target="5l9jM7L85mIRwHmAoZgA-15">
          <mxGeometry relative="1" as="geometry" />
        </mxCell>
        <mxCell id="5l9jM7L85mIRwHmAoZgA-14" value="" style="outlineConnect=0;dashed=0;verticalLabelPosition=bottom;verticalAlign=top;align=center;html=1;shape=mxgraph.aws3.internet_gateway;fillColor=#F58534;gradientColor=none;" vertex="1" parent="1">
          <mxGeometry x="91.63" y="716" width="28.75" height="30" as="geometry" />
        </mxCell>
        <mxCell id="5l9jM7L85mIRwHmAoZgA-20" style="edgeStyle=orthogonalEdgeStyle;rounded=0;orthogonalLoop=1;jettySize=auto;html=1;exitX=1;exitY=0.5;exitDx=0;exitDy=0;exitPerimeter=0;startArrow=none;startFill=0;endArrow=classic;endFill=1;" edge="1" parent="1" source="5l9jM7L85mIRwHmAoZgA-15" target="5l9jM7L85mIRwHmAoZgA-13">
          <mxGeometry relative="1" as="geometry" />
        </mxCell>
        <mxCell id="5l9jM7L85mIRwHmAoZgA-15" value="" style="outlineConnect=0;dashed=0;verticalLabelPosition=middle;verticalAlign=middle;align=left;html=1;shape=mxgraph.aws3.route_table;fillColor=#F58536;gradientColor=none;labelPosition=right;" vertex="1" parent="1">
          <mxGeometry x="93.67000000000002" y="784" width="23.71" height="21" as="geometry" />
        </mxCell>
        <mxCell id="5l9jM7L85mIRwHmAoZgA-17" value="USER" style="text;html=1;align=center;verticalAlign=middle;resizable=0;points=[];autosize=1;" vertex="1" parent="1">
          <mxGeometry x="114.5" y="30" width="50" height="20" as="geometry" />
        </mxCell>
        <mxCell id="5l9jM7L85mIRwHmAoZgA-18" value="MGMT" style="text;html=1;align=center;verticalAlign=middle;resizable=0;points=[];autosize=1;" vertex="1" parent="1">
          <mxGeometry x="14.879999999999995" y="30" width="50" height="20" as="geometry" />
        </mxCell>
        <mxCell id="5l9jM7L85mIRwHmAoZgA-29" style="edgeStyle=orthogonalEdgeStyle;rounded=0;orthogonalLoop=1;jettySize=auto;html=1;exitX=0;exitY=0.5;exitDx=0;exitDy=0;exitPerimeter=0;startArrow=none;startFill=0;endArrow=none;endFill=0;" edge="1" parent="1" source="5l9jM7L85mIRwHmAoZgA-21">
          <mxGeometry relative="1" as="geometry">
            <mxPoint x="290" y="740" as="targetPoint" />
            <Array as="points">
              <mxPoint x="290" y="701" />
              <mxPoint x="290" y="740" />
            </Array>
          </mxGeometry>
        </mxCell>
        <mxCell id="5l9jM7L85mIRwHmAoZgA-21" value="" style="outlineConnect=0;dashed=0;verticalLabelPosition=middle;verticalAlign=middle;align=left;html=1;shape=mxgraph.aws3.route_table;fillColor=#F58536;gradientColor=none;labelPosition=right;" vertex="1" parent="1">
          <mxGeometry x="376.52" y="690" width="23.71" height="21" as="geometry" />
        </mxCell>
        <mxCell id="5l9jM7L85mIRwHmAoZgA-30" style="edgeStyle=orthogonalEdgeStyle;rounded=0;orthogonalLoop=1;jettySize=auto;html=1;exitX=1;exitY=0.5;exitDx=0;exitDy=0;exitPerimeter=0;startArrow=none;startFill=0;endArrow=none;endFill=0;" edge="1" parent="1" source="5l9jM7L85mIRwHmAoZgA-22" target="5l9jM7L85mIRwHmAoZgA-13">
          <mxGeometry relative="1" as="geometry">
            <Array as="points">
              <mxPoint x="560" y="701" />
            </Array>
          </mxGeometry>
        </mxCell>
        <mxCell id="5l9jM7L85mIRwHmAoZgA-22" value="" style="outlineConnect=0;dashed=0;verticalLabelPosition=middle;verticalAlign=middle;align=left;html=1;shape=mxgraph.aws3.route_table;fillColor=#F58536;gradientColor=none;labelPosition=right;" vertex="1" parent="1">
          <mxGeometry x="429.25" y="690" width="23.71" height="21" as="geometry" />
        </mxCell>
        <mxCell id="5l9jM7L85mIRwHmAoZgA-31" value="Security Group" style="fontStyle=0;verticalAlign=top;align=center;spacingTop=-2;fillColor=#fff2cc;rounded=0;whiteSpace=wrap;html=1;strokeColor=#d6b656;strokeWidth=2;dashed=1;container=1;collapsible=0;expand=0;recursiveResize=0;" vertex="1" parent="1">
          <mxGeometry x="294" y="746" width="80" height="80" as="geometry" />
        </mxCell>
        <mxCell id="5l9jM7L85mIRwHmAoZgA-32" value="" style="outlineConnect=0;dashed=0;verticalLabelPosition=bottom;verticalAlign=top;align=center;html=1;shape=mxgraph.aws3.ec2;fillColor=#F58534;gradientColor=none;" vertex="1" parent="5l9jM7L85mIRwHmAoZgA-31">
          <mxGeometry x="28.32" y="36" width="24.68" height="30" as="geometry" />
        </mxCell>
      </root>
    </mxGraphModel>
  </diagram>
</mxfile>
